<svg width="200" height="180" viewBox="0 0 200 180" fill="none" xmlns="http://www.w3.org/2000/svg">
<rect width="200" height="180" fill="#E03372"/>
<path d="M83.75 88.4292L85.3208 86.8042L86.8917 88.4292C87.3952 88.9369 87.9943 89.3399 88.6544 89.6149C89.3144 89.8899 90.0224 90.0315 90.7375 90.0315C91.4526 90.0315 92.1606 89.8899 92.8206 89.6149C93.4807 89.3399 94.0798 88.9369 94.5833 88.4292C95.091 87.9257 95.494 87.3266 95.769 86.6665C96.044 86.0064 96.1856 85.2984 96.1856 84.5834C96.1856 83.8683 96.044 83.1603 95.769 82.5003C95.494 81.8402 95.091 81.2411 94.5833 80.7375L92.9583 79.1667L94.5833 77.5959C95.6033 76.5472 96.1649 75.1362 96.1446 73.6734C96.1243 72.2107 95.5237 70.8159 94.475 69.7959C93.4263 68.7759 92.0153 68.2143 90.5526 68.2346C89.0898 68.2549 87.695 68.8555 86.675 69.9042L85.1042 71.5292L83.75 69.9042C82.73 68.8555 81.3352 68.2549 79.8724 68.2346C78.4097 68.2143 76.9987 68.7759 75.95 69.7959C74.9013 70.8159 74.3007 72.2107 74.2804 73.6734C74.2601 75.1362 74.8217 76.5472 75.8417 77.5959L77.4667 79.1667L75.8417 80.7375C75.334 81.2411 74.931 81.8402 74.656 82.5003C74.381 83.1603 74.2394 83.8683 74.2394 84.5834C74.2394 85.2984 74.381 86.0064 74.656 86.6665C74.931 87.3266 75.334 87.9257 75.8417 88.4292C76.3452 88.9369 76.9443 89.3399 77.6044 89.6149C78.2644 89.8899 78.9724 90.0315 79.6875 90.0315C80.4026 90.0315 81.1106 89.8899 81.7706 89.6149C82.4307 89.3399 83.0298 88.9369 83.5333 88.4292H83.75ZM80.5 108.038C79.4082 108.954 78.722 110.265 78.5902 111.685C78.4583 113.104 78.8916 114.519 79.7958 115.621C80.2506 116.169 80.809 116.623 81.4392 116.955C82.0694 117.287 82.759 117.492 83.4685 117.558C84.1779 117.623 84.8933 117.548 85.5737 117.336C86.254 117.125 86.886 116.781 87.4333 116.325C91.0543 113.406 95.5654 111.814 100.217 111.814C104.868 111.814 109.379 113.406 113 116.325C113.547 116.781 114.179 117.125 114.86 117.336C115.54 117.548 116.255 117.623 116.965 117.558C117.674 117.492 118.364 117.287 118.994 116.955C119.624 116.623 120.183 116.169 120.638 115.621C121.542 114.519 121.975 113.104 121.843 111.685C121.711 110.265 121.025 108.954 119.933 108.038C114.327 103.49 107.327 101.008 100.108 101.008C92.8894 101.008 85.8899 103.49 80.2833 108.038H80.5ZM100 35.8334C89.2868 35.8334 78.8143 39.0102 69.9066 44.9621C60.999 50.914 54.0563 59.3737 49.9565 69.2714C45.8568 79.169 44.7841 90.0601 46.8741 100.567C48.9642 111.075 54.123 120.726 61.6984 128.302C69.2737 135.877 78.9253 141.036 89.4326 143.126C99.9399 145.216 110.831 144.143 120.729 140.044C130.626 135.944 139.086 129.001 145.038 120.093C150.99 111.186 154.167 100.713 154.167 90C154.167 82.8868 152.766 75.8432 150.043 69.2714C147.321 62.6996 143.331 56.7283 138.302 51.6984C133.272 46.6686 127.3 42.6787 120.729 39.9566C114.157 37.2344 107.113 35.8334 100 35.8334V35.8334ZM100 133.333C91.4295 133.333 83.0514 130.792 75.9253 126.03C68.7992 121.269 63.245 114.501 59.9652 106.583C56.6854 98.6649 55.8273 89.952 57.4993 81.5461C59.1713 73.1403 63.2984 65.419 69.3587 59.3587C75.419 53.2985 83.1402 49.1714 91.5461 47.4993C99.9519 45.8273 108.665 46.6855 116.583 49.9653C124.501 53.2451 131.269 58.7992 136.03 65.9253C140.792 73.0515 143.333 81.4295 143.333 90C143.333 101.493 138.768 112.515 130.641 120.641C122.515 128.768 111.493 133.333 100 133.333V133.333ZM127.083 69.9042C126.58 69.3965 125.981 68.9935 125.321 68.7185C124.661 68.4436 123.953 68.302 123.238 68.302C122.522 68.302 121.814 68.4436 121.154 68.7185C120.494 68.9935 119.895 69.3965 119.392 69.9042L117.821 71.5292L116.25 69.9042C115.23 68.8842 113.847 68.3112 112.404 68.3112C110.962 68.3112 109.578 68.8842 108.558 69.9042C107.538 70.9242 106.965 72.3076 106.965 73.75C106.965 75.1925 107.538 76.5759 108.558 77.5959L110.183 79.1667L108.558 80.7375C108.051 81.2411 107.648 81.8402 107.373 82.5003C107.098 83.1603 106.956 83.8683 106.956 84.5834C106.956 85.2984 107.098 86.0064 107.373 86.6665C107.648 87.3266 108.051 87.9257 108.558 88.4292C109.062 88.9369 109.661 89.3399 110.321 89.6149C110.981 89.8899 111.689 90.0315 112.404 90.0315C113.119 90.0315 113.827 89.8899 114.487 89.6149C115.147 89.3399 115.746 88.9369 116.25 88.4292L117.821 86.8042L119.392 88.4292C119.895 88.9369 120.494 89.3399 121.154 89.6149C121.814 89.8899 122.522 90.0315 123.238 90.0315C123.953 90.0315 124.661 89.8899 125.321 89.6149C125.981 89.3399 126.58 88.9369 127.083 88.4292C127.591 87.9257 127.994 87.3266 128.269 86.6665C128.544 86.0064 128.686 85.2984 128.686 84.5834C128.686 83.8683 128.544 83.1603 128.269 82.5003C127.994 81.8402 127.591 81.2411 127.083 80.7375L125.458 79.1667L127.083 77.5959C127.591 77.0923 127.994 76.4932 128.269 75.8332C128.544 75.1731 128.686 74.4651 128.686 73.75C128.686 73.035 128.544 72.327 128.269 71.6669C127.994 71.0068 127.591 70.4078 127.083 69.9042Z" fill="#121212"/>
</svg>
