<svg width="65" height="65" viewBox="0 0 65 65" fill="none" xmlns="http://www.w3.org/2000/svg">
<path d="M46.0415 5.41666H18.9582C15.3667 5.41666 11.9223 6.84337 9.38277 9.38293C6.84321 11.9225 5.4165 15.3669 5.4165 18.9583V46.0417C5.4165 49.6331 6.84321 53.0775 9.38277 55.6171C11.9223 58.1566 15.3667 59.5833 18.9582 59.5833H46.0415C49.633 59.5833 53.0774 58.1566 55.6169 55.6171C58.1565 53.0775 59.5832 49.6331 59.5832 46.0417V18.9583C59.5832 15.3669 58.1565 11.9225 55.6169 9.38293C53.0774 6.84337 49.633 5.41666 46.0415 5.41666V5.41666ZM54.1665 46.0417C54.1665 48.1966 53.3105 50.2632 51.7868 51.7869C50.263 53.3106 48.1964 54.1667 46.0415 54.1667H18.9582C16.8033 54.1667 14.7367 53.3106 13.2129 51.7869C11.6892 50.2632 10.8332 48.1966 10.8332 46.0417V18.9583C10.8332 16.8034 11.6892 14.7368 13.2129 13.2131C14.7367 11.6894 16.8033 10.8333 18.9582 10.8333H46.0415C48.1964 10.8333 50.263 11.6894 51.7868 13.2131C53.3105 14.7368 54.1665 16.8034 54.1665 18.9583V46.0417ZM21.6665 40.625C21.1308 40.625 20.6072 40.7838 20.1618 41.0814C19.7165 41.379 19.3693 41.802 19.1643 42.2969C18.9593 42.7918 18.9057 43.3363 19.0102 43.8617C19.1147 44.3871 19.3727 44.8696 19.7514 45.2484C20.1302 45.6272 20.6128 45.8851 21.1381 45.9896C21.6635 46.0941 22.2081 46.0405 22.7029 45.8355C23.1978 45.6305 23.6208 45.2834 23.9184 44.838C24.216 44.3926 24.3748 43.869 24.3748 43.3333C24.3748 42.615 24.0895 41.9262 23.5816 41.4183C23.0737 40.9103 22.3848 40.625 21.6665 40.625V40.625ZM32.4998 29.7917C31.9642 29.7917 31.4406 29.9505 30.9952 30.2481C30.5498 30.5457 30.2027 30.9687 29.9977 31.4636C29.7927 31.9584 29.739 32.503 29.8435 33.0284C29.948 33.5537 30.206 34.0363 30.5848 34.4151C30.9635 34.7938 31.4461 35.0518 31.9715 35.1563C32.4968 35.2608 33.0414 35.2072 33.5363 35.0022C34.0312 34.7972 34.4541 34.4501 34.7517 34.0047C35.0493 33.5593 35.2082 33.0357 35.2082 32.5C35.2082 31.7817 34.9228 31.0928 34.4149 30.5849C33.907 30.077 33.2181 29.7917 32.4998 29.7917ZM21.6665 18.9583C21.1308 18.9583 20.6072 19.1172 20.1618 19.4148C19.7165 19.7124 19.3693 20.1353 19.1643 20.6302C18.9593 21.1251 18.9057 21.6697 19.0102 22.195C19.1147 22.7204 19.3727 23.203 19.7514 23.5817C20.1302 23.9605 20.6128 24.2185 21.1381 24.323C21.6635 24.4275 22.2081 24.3738 22.7029 24.1688C23.1978 23.9639 23.6208 23.6167 23.9184 23.1713C24.216 22.726 24.3748 22.2023 24.3748 21.6667C24.3748 20.9484 24.0895 20.2595 23.5816 19.7516C23.0737 19.2437 22.3848 18.9583 21.6665 18.9583V18.9583ZM43.3332 40.625C42.7975 40.625 42.2739 40.7838 41.8285 41.0814C41.3831 41.379 41.036 41.802 40.831 42.2969C40.626 42.7918 40.5724 43.3363 40.6769 43.8617C40.7814 44.3871 41.0393 44.8696 41.4181 45.2484C41.7969 45.6272 42.2794 45.8851 42.8048 45.9896C43.3302 46.0941 43.8747 46.0405 44.3696 45.8355C44.8645 45.6305 45.2875 45.2834 45.5851 44.838C45.8827 44.3926 46.0415 43.869 46.0415 43.3333C46.0415 42.615 45.7562 41.9262 45.2483 41.4183C44.7403 40.9103 44.0515 40.625 43.3332 40.625ZM43.3332 18.9583C42.7975 18.9583 42.2739 19.1172 41.8285 19.4148C41.3831 19.7124 41.036 20.1353 40.831 20.6302C40.626 21.1251 40.5724 21.6697 40.6769 22.195C40.7814 22.7204 41.0393 23.203 41.4181 23.5817C41.7969 23.9605 42.2794 24.2185 42.8048 24.323C43.3302 24.4275 43.8747 24.3738 44.3696 24.1688C44.8645 23.9639 45.2875 23.6167 45.5851 23.1713C45.8827 22.726 46.0415 22.2023 46.0415 21.6667C46.0415 20.9484 45.7562 20.2595 45.2483 19.7516C44.7403 19.2437 44.0515 18.9583 43.3332 18.9583Z" fill="white"/>
</svg>
