<svg width="65" height="65" viewBox="0 0 65 65" fill="none" xmlns="http://www.w3.org/2000/svg">
<path d="M24.3748 29.7917C23.8392 29.7917 23.3156 29.9505 22.8702 30.2481C22.4248 30.5457 22.0777 30.9687 21.8727 31.4636C21.6677 31.9584 21.614 32.503 21.7185 33.0284C21.823 33.5537 22.081 34.0363 22.4598 34.4151C22.8385 34.7938 23.3211 35.0518 23.8465 35.1563C24.3718 35.2608 24.9164 35.2072 25.4113 35.0022C25.9062 34.7972 26.3291 34.4501 26.6267 34.0047C26.9243 33.5593 27.0832 33.0357 27.0832 32.5C27.0832 31.7817 26.7978 31.0928 26.2899 30.5849C25.782 30.077 25.0931 29.7917 24.3748 29.7917ZM46.0415 5.41666H18.9582C15.3667 5.41666 11.9223 6.84337 9.38277 9.38293C6.84321 11.9225 5.4165 15.3669 5.4165 18.9583V46.0417C5.4165 49.6331 6.84321 53.0775 9.38277 55.6171C11.9223 58.1566 15.3667 59.5833 18.9582 59.5833H46.0415C49.633 59.5833 53.0774 58.1566 55.6169 55.6171C58.1565 53.0775 59.5832 49.6331 59.5832 46.0417V18.9583C59.5832 15.3669 58.1565 11.9225 55.6169 9.38293C53.0774 6.84337 49.633 5.41666 46.0415 5.41666V5.41666ZM54.1665 46.0417C54.1665 48.1966 53.3105 50.2632 51.7868 51.7869C50.263 53.3106 48.1964 54.1667 46.0415 54.1667H18.9582C16.8033 54.1667 14.7367 53.3106 13.2129 51.7869C11.6892 50.2632 10.8332 48.1966 10.8332 46.0417V18.9583C10.8332 16.8034 11.6892 14.7368 13.2129 13.2131C14.7367 11.6894 16.8033 10.8333 18.9582 10.8333H46.0415C48.1964 10.8333 50.263 11.6894 51.7868 13.2131C53.3105 14.7368 54.1665 16.8034 54.1665 18.9583V46.0417ZM40.6248 29.7917C40.0892 29.7917 39.5656 29.9505 39.1202 30.2481C38.6748 30.5457 38.3277 30.9687 38.1227 31.4636C37.9177 31.9584 37.864 32.503 37.9685 33.0284C38.073 33.5537 38.331 34.0363 38.7098 34.4151C39.0885 34.7938 39.5711 35.0518 40.0965 35.1563C40.6218 35.2608 41.1664 35.2072 41.6613 35.0022C42.1562 34.7972 42.5791 34.4501 42.8767 34.0047C43.1743 33.5593 43.3332 33.0357 43.3332 32.5C43.3332 31.7817 43.0478 31.0928 42.5399 30.5849C42.032 30.077 41.3431 29.7917 40.6248 29.7917Z" fill="white"/>
</svg>
