<svg width="65" height="65" viewBox="0 0 65 65" fill="none" xmlns="http://www.w3.org/2000/svg">
<path d="M40.6248 37.9167C40.0892 37.9167 39.5656 38.0755 39.1202 38.3731C38.6748 38.6707 38.3277 39.0937 38.1227 39.5886C37.9177 40.0834 37.864 40.628 37.9685 41.1534C38.073 41.6787 38.331 42.1613 38.7098 42.5401C39.0885 42.9188 39.5711 43.1768 40.0965 43.2813C40.6218 43.3858 41.1664 43.3322 41.6613 43.1272C42.1562 42.9222 42.5791 42.5751 42.8767 42.1297C43.1743 41.6843 43.3332 41.1607 43.3332 40.625C43.3332 39.9067 43.0478 39.2178 42.5399 38.7099C42.032 38.202 41.3431 37.9167 40.6248 37.9167ZM24.3748 21.6667C23.8392 21.6667 23.3156 21.8255 22.8702 22.1231C22.4248 22.4207 22.0777 22.8437 21.8727 23.3386C21.6677 23.8334 21.614 24.378 21.7185 24.9034C21.823 25.4287 22.081 25.9113 22.4598 26.2901C22.8385 26.6688 23.3211 26.9268 23.8465 27.0313C24.3718 27.1358 24.9164 27.0822 25.4113 26.8772C25.9062 26.6722 26.3291 26.3251 26.6267 25.8797C26.9243 25.4343 27.0832 24.9107 27.0832 24.375C27.0832 23.6567 26.7978 22.9678 26.2899 22.4599C25.782 21.952 25.0931 21.6667 24.3748 21.6667ZM24.3748 37.9167C23.8392 37.9167 23.3156 38.0755 22.8702 38.3731C22.4248 38.6707 22.0777 39.0937 21.8727 39.5886C21.6677 40.0834 21.614 40.628 21.7185 41.1534C21.823 41.6787 22.081 42.1613 22.4598 42.5401C22.8385 42.9188 23.3211 43.1768 23.8465 43.2813C24.3718 43.3858 24.9164 43.3322 25.4113 43.1272C25.9062 42.9222 26.3291 42.5751 26.6267 42.1297C26.9243 41.6843 27.0832 41.1607 27.0832 40.625C27.0832 39.9067 26.7978 39.2178 26.2899 38.7099C25.782 38.202 25.0931 37.9167 24.3748 37.9167ZM40.6248 21.6667C40.0892 21.6667 39.5656 21.8255 39.1202 22.1231C38.6748 22.4207 38.3277 22.8437 38.1227 23.3386C37.9177 23.8334 37.864 24.378 37.9685 24.9034C38.073 25.4287 38.331 25.9113 38.7098 26.2901C39.0885 26.6688 39.5711 26.9268 40.0965 27.0313C40.6218 27.1358 41.1664 27.0822 41.6613 26.8772C42.1562 26.6722 42.5791 26.3251 42.8767 25.8797C43.1743 25.4343 43.3332 24.9107 43.3332 24.375C43.3332 23.6567 43.0478 22.9678 42.5399 22.4599C42.032 21.952 41.3431 21.6667 40.6248 21.6667ZM46.0415 5.41666H18.9582C15.3667 5.41666 11.9223 6.84337 9.38277 9.38293C6.84321 11.9225 5.4165 15.3669 5.4165 18.9583V46.0417C5.4165 49.6331 6.84321 53.0775 9.38277 55.6171C11.9223 58.1566 15.3667 59.5833 18.9582 59.5833H46.0415C49.633 59.5833 53.0774 58.1566 55.6169 55.6171C58.1565 53.0775 59.5832 49.6331 59.5832 46.0417V18.9583C59.5832 15.3669 58.1565 11.9225 55.6169 9.38293C53.0774 6.84337 49.633 5.41666 46.0415 5.41666V5.41666ZM54.1665 46.0417C54.1665 48.1966 53.3105 50.2632 51.7868 51.7869C50.263 53.3106 48.1964 54.1667 46.0415 54.1667H18.9582C16.8033 54.1667 14.7367 53.3106 13.2129 51.7869C11.6892 50.2632 10.8332 48.1966 10.8332 46.0417V18.9583C10.8332 16.8034 11.6892 14.7368 13.2129 13.2131C14.7367 11.6894 16.8033 10.8333 18.9582 10.8333H46.0415C48.1964 10.8333 50.263 11.6894 51.7868 13.2131C53.3105 14.7368 54.1665 16.8034 54.1665 18.9583V46.0417Z" fill="white"/>
</svg>
