<svg width="65" height="65" viewBox="0 0 65 65" fill="none" xmlns="http://www.w3.org/2000/svg">
<path d="M46.0415 5.41666H18.9582C15.3667 5.41666 11.9223 6.84337 9.38277 9.38293C6.84321 11.9225 5.4165 15.3669 5.4165 18.9583V46.0417C5.4165 49.6331 6.84321 53.0775 9.38277 55.6171C11.9223 58.1566 15.3667 59.5833 18.9582 59.5833H46.0415C49.633 59.5833 53.0774 58.1566 55.6169 55.6171C58.1565 53.0775 59.5832 49.6331 59.5832 46.0417V18.9583C59.5832 15.3669 58.1565 11.9225 55.6169 9.38293C53.0774 6.84337 49.633 5.41666 46.0415 5.41666V5.41666ZM54.1665 46.0417C54.1665 48.1966 53.3105 50.2632 51.7868 51.7869C50.263 53.3106 48.1964 54.1667 46.0415 54.1667H18.9582C16.8033 54.1667 14.7367 53.3106 13.2129 51.7869C11.6892 50.2632 10.8332 48.1966 10.8332 46.0417V18.9583C10.8332 16.8034 11.6892 14.7368 13.2129 13.2131C14.7367 11.6894 16.8033 10.8333 18.9582 10.8333H46.0415C48.1964 10.8333 50.263 11.6894 51.7868 13.2131C53.3105 14.7368 54.1665 16.8034 54.1665 18.9583V46.0417ZM32.4998 29.7917C31.9642 29.7917 31.4406 29.9505 30.9952 30.2481C30.5498 30.5457 30.2027 30.9687 29.9977 31.4636C29.7927 31.9584 29.739 32.503 29.8435 33.0284C29.948 33.5537 30.206 34.0363 30.5848 34.4151C30.9635 34.7938 31.4461 35.0518 31.9715 35.1563C32.4968 35.2608 33.0414 35.2072 33.5363 35.0022C34.0312 34.7972 34.4541 34.4501 34.7517 34.0047C35.0493 33.5593 35.2082 33.0357 35.2082 32.5C35.2082 31.7817 34.9228 31.0928 34.4149 30.5849C33.907 30.077 33.2181 29.7917 32.4998 29.7917Z" fill="white"/>
</svg>
