<svg width="25" height="24" viewBox="0 0 25 24" fill="none" xmlns="http://www.w3.org/2000/svg">
<path d="M22.42 2.62C22.3185 2.37565 22.1243 2.18147 21.88 2.08C21.7598 2.02876 21.6307 2.00158 21.5 2H15.5C15.2348 2 14.9804 2.10536 14.7929 2.29289C14.6054 2.48043 14.5 2.73478 14.5 3C14.5 3.26522 14.6054 3.51957 14.7929 3.70711C14.9804 3.89464 15.2348 4 15.5 4H19.09L4.5 18.59V15C4.5 14.7348 4.39464 14.4804 4.20711 14.2929C4.01957 14.1054 3.76522 14 3.5 14C3.23478 14 2.98043 14.1054 2.79289 14.2929C2.60536 14.4804 2.5 14.7348 2.5 15V21C2.50158 21.1307 2.52876 21.2598 2.58 21.38C2.68147 21.6243 2.87565 21.8185 3.12 21.92C3.24022 21.9712 3.36932 21.9984 3.5 22H9.5C9.76522 22 10.0196 21.8946 10.2071 21.7071C10.3946 21.5196 10.5 21.2652 10.5 21C10.5 20.7348 10.3946 20.4804 10.2071 20.2929C10.0196 20.1054 9.76522 20 9.5 20H5.91L20.5 5.41V9C20.5 9.26522 20.6054 9.51957 20.7929 9.70711C20.9804 9.89464 21.2348 10 21.5 10C21.7652 10 22.0196 9.89464 22.2071 9.70711C22.3946 9.51957 22.5 9.26522 22.5 9V3C22.4984 2.86932 22.4712 2.74022 22.42 2.62Z" fill="#121212"/>
</svg>
