<svg width="65" height="65" viewBox="0 0 65 65" fill="none" xmlns="http://www.w3.org/2000/svg">
<path d="M24.3748 29.7917C23.8392 29.7917 23.3156 29.9505 22.8702 30.2481C22.4248 30.5457 22.0777 30.9687 21.8727 31.4636C21.6677 31.9584 21.614 32.503 21.7185 33.0284C21.823 33.5537 22.081 34.0363 22.4598 34.4151C22.8385 34.7938 23.3211 35.0518 23.8465 35.1563C24.3718 35.2608 24.9164 35.2072 25.4113 35.0022C25.9062 34.7972 26.3291 34.4501 26.6267 34.0047C26.9243 33.5593 27.0832 33.0357 27.0832 32.5C27.0832 31.7817 26.7978 31.0928 26.2899 30.5849C25.782 30.077 25.0931 29.7917 24.3748 29.7917ZM24.3748 40.625C23.8392 40.625 23.3156 40.7838 22.8702 41.0814C22.4248 41.379 22.0777 41.802 21.8727 42.2969C21.6677 42.7918 21.614 43.3363 21.7185 43.8617C21.823 44.3871 22.081 44.8696 22.4598 45.2484C22.8385 45.6272 23.3211 45.8851 23.8465 45.9896C24.3718 46.0941 24.9164 46.0405 25.4113 45.8355C25.9062 45.6305 26.3291 45.2834 26.6267 44.838C26.9243 44.3926 27.0832 43.869 27.0832 43.3333C27.0832 42.615 26.7978 41.9262 26.2899 41.4183C25.782 40.9103 25.0931 40.625 24.3748 40.625ZM24.3748 18.9583C23.8392 18.9583 23.3156 19.1172 22.8702 19.4148C22.4248 19.7124 22.0777 20.1353 21.8727 20.6302C21.6677 21.1251 21.614 21.6697 21.7185 22.195C21.823 22.7204 22.081 23.203 22.4598 23.5817C22.8385 23.9605 23.3211 24.2185 23.8465 24.323C24.3718 24.4275 24.9164 24.3738 25.4113 24.1688C25.9062 23.9639 26.3291 23.6167 26.6267 23.1713C26.9243 22.726 27.0832 22.2023 27.0832 21.6667C27.0832 20.9484 26.7978 20.2595 26.2899 19.7516C25.782 19.2437 25.0931 18.9583 24.3748 18.9583ZM40.6248 18.9583C40.0892 18.9583 39.5656 19.1172 39.1202 19.4148C38.6748 19.7124 38.3277 20.1353 38.1227 20.6302C37.9177 21.1251 37.864 21.6697 37.9685 22.195C38.073 22.7204 38.331 23.203 38.7098 23.5817C39.0885 23.9605 39.5711 24.2185 40.0965 24.323C40.6218 24.4275 41.1664 24.3738 41.6613 24.1688C42.1562 23.9639 42.5791 23.6167 42.8767 23.1713C43.1743 22.726 43.3332 22.2023 43.3332 21.6667C43.3332 20.9484 43.0478 20.2595 42.5399 19.7516C42.032 19.2437 41.3431 18.9583 40.6248 18.9583ZM46.0415 5.41666H18.9582C15.3667 5.41666 11.9223 6.84337 9.38277 9.38293C6.84321 11.9225 5.4165 15.3669 5.4165 18.9583V46.0417C5.4165 49.6331 6.84321 53.0775 9.38277 55.6171C11.9223 58.1566 15.3667 59.5833 18.9582 59.5833H46.0415C49.633 59.5833 53.0774 58.1566 55.6169 55.6171C58.1565 53.0775 59.5832 49.6331 59.5832 46.0417V18.9583C59.5832 15.3669 58.1565 11.9225 55.6169 9.38293C53.0774 6.84337 49.633 5.41666 46.0415 5.41666V5.41666ZM54.1665 46.0417C54.1665 48.1966 53.3105 50.2632 51.7868 51.7869C50.263 53.3106 48.1964 54.1667 46.0415 54.1667H18.9582C16.8033 54.1667 14.7367 53.3106 13.2129 51.7869C11.6892 50.2632 10.8332 48.1966 10.8332 46.0417V18.9583C10.8332 16.8034 11.6892 14.7368 13.2129 13.2131C14.7367 11.6894 16.8033 10.8333 18.9582 10.8333H46.0415C48.1964 10.8333 50.263 11.6894 51.7868 13.2131C53.3105 14.7368 54.1665 16.8034 54.1665 18.9583V46.0417ZM40.6248 29.7917C40.0892 29.7917 39.5656 29.9505 39.1202 30.2481C38.6748 30.5457 38.3277 30.9687 38.1227 31.4636C37.9177 31.9584 37.864 32.503 37.9685 33.0284C38.073 33.5537 38.331 34.0363 38.7098 34.4151C39.0885 34.7938 39.5711 35.0518 40.0965 35.1563C40.6218 35.2608 41.1664 35.2072 41.6613 35.0022C42.1562 34.7972 42.5791 34.4501 42.8767 34.0047C43.1743 33.5593 43.3332 33.0357 43.3332 32.5C43.3332 31.7817 43.0478 31.0928 42.5399 30.5849C42.032 30.077 41.3431 29.7917 40.6248 29.7917ZM40.6248 40.625C40.0892 40.625 39.5656 40.7838 39.1202 41.0814C38.6748 41.379 38.3277 41.802 38.1227 42.2969C37.9177 42.7918 37.864 43.3363 37.9685 43.8617C38.073 44.3871 38.331 44.8696 38.7098 45.2484C39.0885 45.6272 39.5711 45.8851 40.0965 45.9896C40.6218 46.0941 41.1664 46.0405 41.6613 45.8355C42.1562 45.6305 42.5791 45.2834 42.8767 44.838C43.1743 44.3926 43.3332 43.869 43.3332 43.3333C43.3332 42.615 43.0478 41.9262 42.5399 41.4183C42.032 40.9103 41.3431 40.625 40.6248 40.625Z" fill="white"/>
</svg>
