<svg width="48" height="48" viewBox="0 0 48 48" fill="none" xmlns="http://www.w3.org/2000/svg">
<path d="M33.958 44C33.958 44 33.982 40.53 33.958 39.76C35.6058 38.878 37.1144 37.7576 38.435 36.435C40.202 34.6727 41.6033 32.5785 42.5583 30.2729C43.5133 27.9672 44.0033 25.4956 44 23C44 12.507 35.493 4 25 4C14.507 4 6.00002 12.507 6.00002 23C5.99675 25.4956 6.48671 27.9672 7.44174 30.2729C8.39677 32.5785 9.79804 34.6727 11.565 36.435C12.4453 37.3153 13.4095 38.1074 14.444 38.8C14.959 39.145 15.454 39.466 16.004 39.76V44H33.958Z" stroke="#121212" stroke-width="4" stroke-linejoin="round"/>
<path d="M18 27C19.0609 27 20.0783 26.5786 20.8284 25.8284C21.5786 25.0783 22 24.0609 22 23L18 19C16.9391 19 15.9217 19.4214 15.1716 20.1716C14.4214 20.9217 14 21.9391 14 23C14 24.0609 14.4214 25.0783 15.1716 25.8284C15.9217 26.5786 16.9391 27 18 27Z" stroke="#121212" stroke-width="4" stroke-linejoin="round"/>
<path d="M32 27C30.9391 27 29.9217 26.5786 29.1716 25.8284C28.4214 25.0783 28 24.0609 28 23L32 19C33.0609 19 34.0783 19.4214 34.8284 20.1716C35.5786 20.9217 36 21.9391 36 23C36 24.0609 35.5786 25.0783 34.8284 25.8284C34.0783 26.5786 33.0609 27 32 27V27Z" stroke="#121212" stroke-width="4" stroke-linejoin="round"/>
<path d="M22 34L24.938 31L28 33.896" stroke="#121212" stroke-width="4" stroke-linecap="round" stroke-linejoin="round"/>
</svg>
